<svg width="389" height="222" viewBox="0 0 389 222" fill="none" xmlns="http://www.w3.org/2000/svg">
<path d="M216.5 51L161.384 1.46265L267 1L216.5 51Z" fill="#222222" stroke="#222222"/>
<path d="M216 168.5L173 126.5L132.5 166.5H45.5L98.5 127L119.5 147.5L156.5 111L125.5 80.5H1V221H161.567L216 168.5Z" fill="#222222" stroke="#222222"/>
<path d="M167.5 1.5L1.50006 1L57.8838 55.4626H134.368L304 221H387L167.5 1.5Z" fill="#222222" stroke="#222222"/>
<path d="M294 93L250.5 50.5L301.5 1H387L294 93Z" fill="#222222" stroke="#222222"/>
<path d="M18.1519 206.432H12.604V210.589H19.0889V212.463H10.2568V198.955H19.0239V200.847H12.604V204.577H18.1519V206.432ZM25.6479 203.835L28.4868 198.955H31.1958L27.1138 205.653L31.2886 212.463H28.5518L25.6479 207.509L22.7349 212.463H20.0073L24.1914 205.653L20.1001 198.955H22.8091L25.6479 203.835ZM42.7832 200.847H38.5713V212.463H36.2427V200.847H32.0679V198.955H42.7832V200.847ZM49.5278 207.258H46.9116V212.463H44.5644V198.955H49.3144C50.873 198.955 52.076 199.304 52.9233 200.003C53.7707 200.702 54.1943 201.713 54.1943 203.037C54.1943 203.94 53.9748 204.698 53.5356 205.31C53.1027 205.916 52.4966 206.383 51.7173 206.711L54.751 212.342V212.463H52.2368L49.5278 207.258ZM46.9116 205.375H49.3237C50.1154 205.375 50.7339 205.177 51.1792 204.781C51.6245 204.379 51.8472 203.832 51.8472 203.139C51.8472 202.415 51.64 201.856 51.2256 201.46C50.8174 201.064 50.2051 200.86 49.3887 200.847H46.9116V205.375ZM64.3159 206.432H58.7681V210.589H65.2529V212.463H56.4209V198.955H65.188V200.847H58.7681V204.577H64.3159V206.432ZM70.207 198.955L74.1035 209.308L77.9907 198.955H81.0244V212.463H78.6865V208.01L78.9184 202.053L74.9292 212.463H73.25L69.27 202.063L69.5019 208.01V212.463H67.1641V198.955H70.207ZM91.7026 206.432H86.1548V210.589H92.6396V212.463H83.8076V198.955H92.5747V200.847H86.1548V204.577H91.7026V206.432ZM108.485 200.847H104.273V212.463H101.945V200.847H97.77V198.955H108.485V200.847ZM120.147 198.955V207.982C120.147 209.417 119.686 210.555 118.765 211.396C117.849 212.231 116.628 212.648 115.1 212.648C113.554 212.648 112.326 212.237 111.417 211.414C110.508 210.586 110.053 209.438 110.053 207.972V198.955H112.391V207.991C112.391 208.894 112.62 209.584 113.078 210.06C113.535 210.536 114.209 210.774 115.1 210.774C116.906 210.774 117.809 209.822 117.809 207.917V198.955H120.147ZM133.376 212.463H131.029L125.008 202.879V212.463H122.661V198.955H125.008L131.048 208.575V198.955H133.376V212.463ZM138.627 212.463H136.29V198.955H138.627V212.463ZM152.228 212.463H149.881L143.86 202.879V212.463H141.513V198.955H143.86L149.899 208.575V198.955H152.228V212.463ZM165.355 210.709C164.867 211.346 164.19 211.829 163.324 212.156C162.458 212.484 161.474 212.648 160.374 212.648C159.242 212.648 158.24 212.392 157.368 211.878C156.496 211.365 155.821 210.632 155.345 209.679C154.875 208.721 154.631 207.604 154.612 206.33V205.273C154.612 203.232 155.101 201.639 156.078 200.495C157.055 199.344 158.419 198.769 160.169 198.769C161.672 198.769 162.866 199.14 163.75 199.883C164.635 200.625 165.167 201.695 165.346 203.093H163.045C162.786 201.466 161.842 200.653 160.216 200.653C159.164 200.653 158.363 201.033 157.813 201.794C157.269 202.548 156.987 203.658 156.969 205.124V206.163C156.969 207.623 157.275 208.758 157.887 209.568C158.506 210.372 159.362 210.774 160.457 210.774C161.657 210.774 162.51 210.502 163.018 209.958V207.314H160.234V205.532H165.355V210.709Z" fill="white"/>
</svg>
