<svg width="389" height="222" viewBox="0 0 389 222" fill="none" xmlns="http://www.w3.org/2000/svg">
<path d="M216.5 51L161.384 1.46265L267 1L216.5 51Z" fill="white" stroke="white"/>
<path d="M216 168.5L173 126.5L132.5 166.5H45.5L98.5 127L119.5 147.5L156.5 111L125.5 80.5H1V221H161.567L216 168.5Z" fill="white" stroke="white"/>
<path d="M167.5 1.5L1.5 1L57.8837 55.4626H134.368L304 221H387L167.5 1.5Z" fill="white" stroke="white"/>
<path d="M294 93L250.5 50.5L301.5 1H387L294 93Z" fill="white" stroke="white"/>
<path d="M16.2681 205.97H10.7202V210.126H17.2051V212H8.37305V198.492H17.1401V200.385H10.7202V204.114H16.2681V205.97ZM23.7642 203.372L26.603 198.492H29.312L25.23 205.19L29.4048 212H26.668L23.7642 207.046L20.8511 212H18.1235L22.3076 205.19L18.2163 198.492H20.9253L23.7642 203.372ZM40.8994 200.385H36.6875V212H34.3589V200.385H30.1841V198.492H40.8994V200.385ZM47.644 206.795H45.0278V212H42.6807V198.492H47.4307C48.9893 198.492 50.1922 198.842 51.0396 199.541C51.8869 200.239 52.3105 201.251 52.3105 202.574C52.3105 203.477 52.091 204.235 51.6519 204.847C51.2189 205.453 50.6128 205.92 49.8335 206.248L52.8672 211.879V212H50.353L47.644 206.795ZM45.0278 204.912H47.4399C48.2316 204.912 48.8501 204.714 49.2954 204.318C49.7407 203.916 49.9634 203.369 49.9634 202.676C49.9634 201.953 49.7562 201.393 49.3418 200.997C48.9336 200.601 48.3213 200.397 47.5049 200.385H45.0278V204.912ZM62.4321 205.97H56.8843V210.126H63.3691V212H54.5371V198.492H63.3042V200.385H56.8843V204.114H62.4321V205.97ZM68.3232 198.492L72.2197 208.846L76.1069 198.492H79.1406V212H76.8027V207.547L77.0347 201.591L73.0454 212H71.3662L67.3862 201.6L67.6182 207.547V212H65.2803V198.492H68.3232ZM89.8188 205.97H84.271V210.126H90.7559V212H81.9238V198.492H90.6909V200.385H84.271V204.114H89.8188V205.97ZM106.602 200.385H102.39V212H100.061V200.385H95.8862V198.492H106.602V200.385ZM118.263 198.492V207.519C118.263 208.954 117.802 210.092 116.881 210.933C115.965 211.768 114.744 212.186 113.216 212.186C111.67 212.186 110.442 211.774 109.533 210.952C108.624 210.123 108.169 208.976 108.169 207.51V198.492H110.507V207.528C110.507 208.431 110.736 209.121 111.194 209.597C111.652 210.073 112.326 210.312 113.216 210.312C115.022 210.312 115.925 209.359 115.925 207.454V198.492H118.263ZM131.493 212H129.146L123.125 202.417V212H120.777V198.492H123.125L129.164 208.113V198.492H131.493V212ZM136.744 212H134.406V198.492H136.744V212ZM150.344 212H147.997L141.976 202.417V212H139.629V198.492H141.976L148.016 208.113V198.492H150.344V212ZM163.472 210.247C162.983 210.884 162.306 211.366 161.44 211.694C160.574 212.022 159.591 212.186 158.49 212.186C157.358 212.186 156.356 211.929 155.484 211.416C154.612 210.902 153.938 210.169 153.461 209.217C152.991 208.258 152.747 207.142 152.729 205.868V204.81C152.729 202.769 153.217 201.176 154.194 200.032C155.172 198.882 156.535 198.307 158.286 198.307C159.789 198.307 160.982 198.678 161.867 199.42C162.751 200.162 163.283 201.232 163.462 202.63H161.162C160.902 201.003 159.959 200.19 158.332 200.19C157.281 200.19 156.48 200.57 155.929 201.331C155.385 202.086 155.104 203.196 155.085 204.662V205.701C155.085 207.16 155.391 208.295 156.003 209.105C156.622 209.91 157.479 210.312 158.573 210.312C159.773 210.312 160.627 210.039 161.134 209.495V206.851H158.351V205.07H163.472V210.247Z" fill="#222222"/>
</svg>
