<svg width="389" height="222" viewBox="0 0 389 222" fill="none" xmlns="http://www.w3.org/2000/svg">
<path d="M216.5 51L161.384 1.46265L267 1L216.5 51Z" fill="white" stroke="white"/>
<path d="M216 168.5L173 126.5L132.5 166.5H45.5L98.5 127L119.5 147.5L156.5 111L125.5 80.5H1V221H161.567L216 168.5Z" fill="white" stroke="white"/>
<path d="M167.5 1.5L1.5 1L57.8837 55.4626H134.368L304 221H387L167.5 1.5Z" fill="white" stroke="white"/>
<path d="M294 93L250.5 50.5L301.5 1H387L294 93Z" fill="white" stroke="white"/>
<path d="M14.2681 207.97H8.72021V212.126H15.2051V214H6.37305V200.492H15.1401V202.385H8.72021V206.114H14.2681V207.97ZM21.7642 205.372L24.603 200.492H27.312L23.23 207.19L27.4048 214H24.668L21.7642 209.046L18.8511 214H16.1235L20.3076 207.19L16.2163 200.492H18.9253L21.7642 205.372ZM38.8994 202.385H34.6875V214H32.3589V202.385H28.1841V200.492H38.8994V202.385ZM45.644 208.795H43.0278V214H40.6807V200.492H45.4307C46.9893 200.492 48.1922 200.842 49.0396 201.541C49.8869 202.239 50.3105 203.251 50.3105 204.574C50.3105 205.477 50.091 206.235 49.6519 206.847C49.2189 207.453 48.6128 207.92 47.8335 208.248L50.8672 213.879V214H48.353L45.644 208.795ZM43.0278 206.912H45.4399C46.2316 206.912 46.8501 206.714 47.2954 206.318C47.7407 205.916 47.9634 205.369 47.9634 204.676C47.9634 203.953 47.7562 203.393 47.3418 202.997C46.9336 202.601 46.3213 202.397 45.5049 202.385H43.0278V206.912ZM60.4321 207.97H54.8843V212.126H61.3691V214H52.5371V200.492H61.3042V202.385H54.8843V206.114H60.4321V207.97ZM66.3232 200.492L70.2197 210.846L74.1069 200.492H77.1406V214H74.8027V209.547L75.0347 203.591L71.0454 214H69.3662L65.3862 203.6L65.6182 209.547V214H63.2803V200.492H66.3232ZM87.8188 207.97H82.271V212.126H88.7559V214H79.9238V200.492H88.6909V202.385H82.271V206.114H87.8188V207.97ZM104.602 202.385H100.39V214H98.061V202.385H93.8862V200.492H104.602V202.385ZM116.263 200.492V209.519C116.263 210.954 115.802 212.092 114.881 212.933C113.965 213.768 112.744 214.186 111.216 214.186C109.67 214.186 108.442 213.774 107.533 212.952C106.624 212.123 106.169 210.976 106.169 209.51V200.492H108.507V209.528C108.507 210.431 108.736 211.121 109.194 211.597C109.652 212.073 110.326 212.312 111.216 212.312C113.022 212.312 113.925 211.359 113.925 209.454V200.492H116.263ZM129.493 214H127.146L121.125 204.417V214H118.777V200.492H121.125L127.164 210.113V200.492H129.493V214ZM134.744 214H132.406V200.492H134.744V214ZM148.344 214H145.997L139.976 204.417V214H137.629V200.492H139.976L146.016 210.113V200.492H148.344V214ZM161.472 212.247C160.983 212.884 160.306 213.366 159.44 213.694C158.574 214.022 157.591 214.186 156.49 214.186C155.358 214.186 154.356 213.929 153.484 213.416C152.612 212.902 151.938 212.169 151.461 211.217C150.991 210.258 150.747 209.142 150.729 207.868V206.81C150.729 204.769 151.217 203.176 152.194 202.032C153.172 200.882 154.535 200.307 156.286 200.307C157.789 200.307 158.982 200.678 159.867 201.42C160.751 202.162 161.283 203.232 161.462 204.63H159.162C158.902 203.003 157.959 202.19 156.332 202.19C155.281 202.19 154.48 202.57 153.929 203.331C153.385 204.086 153.104 205.196 153.085 206.662V207.701C153.085 209.16 153.391 210.295 154.003 211.105C154.622 211.91 155.479 212.312 156.573 212.312C157.773 212.312 158.627 212.039 159.134 211.495V208.851H156.351V207.07H161.472V212.247Z" fill="#222222"/>
</svg>
