<svg width="389" height="222" viewBox="0 0 389 222" fill="none" xmlns="http://www.w3.org/2000/svg">
<path d="M216.5 51L161.384 1.46265L267 1L216.5 51Z" fill="#222222" stroke="#222222"/>
<path d="M216 168.5L173 126.5L132.5 166.5H45.5L98.5 127L119.5 147.5L156.5 111L125.5 80.5H1V221H161.567L216 168.5Z" fill="#222222" stroke="#222222"/>
<path d="M167.5 1.5L1.50006 1L57.8838 55.4626H134.368L304 221H387L167.5 1.5Z" fill="#222222" stroke="#222222"/>
<path d="M294 93L250.5 50.5L301.5 1H387L294 93Z" fill="#222222" stroke="#222222"/>
<path d="M18.6396 207.115H12.7998V211.49H19.626V213.463H10.3291V199.244H19.5576V201.236H12.7998V205.162H18.6396V207.115ZM26.5303 204.381L29.5186 199.244H32.3701L28.0732 206.295L32.4678 213.463H29.5869L26.5303 208.248L23.4639 213.463H20.5928L24.9971 206.295L20.6904 199.244H23.542L26.5303 204.381ZM44.5674 201.236H40.1338V213.463H37.6826V201.236H33.2881V199.244H44.5674V201.236ZM51.667 207.984H48.9131V213.463H46.4424V199.244H51.4424C53.083 199.244 54.3493 199.612 55.2412 200.347C56.1331 201.083 56.5791 202.148 56.5791 203.541C56.5791 204.491 56.348 205.289 55.8857 205.933C55.43 206.571 54.792 207.063 53.9717 207.408L57.165 213.336V213.463H54.5185L51.667 207.984ZM48.9131 206.002H51.4521C52.2855 206.002 52.9365 205.793 53.4053 205.377C53.874 204.954 54.1084 204.377 54.1084 203.648C54.1084 202.886 53.8903 202.297 53.4541 201.881C53.0244 201.464 52.3799 201.249 51.5205 201.236H48.9131V206.002ZM67.2334 207.115H61.3935V211.49H68.2197V213.463H58.9228V199.244H68.1514V201.236H61.3935V205.162H67.2334V207.115ZM73.4346 199.244L77.5361 210.142L81.6279 199.244H84.8213V213.463H82.3603V208.775L82.6045 202.506L78.4053 213.463H76.6377L72.4482 202.515L72.6924 208.775V213.463H70.2314V199.244H73.4346ZM102.419 201.236H97.9853V213.463H95.5342V201.236H91.1396V199.244H102.419V201.236ZM114.694 199.244V208.746C114.694 210.256 114.209 211.454 113.239 212.34C112.276 213.219 110.99 213.658 109.382 213.658C107.754 213.658 106.462 213.225 105.505 212.359C104.548 211.487 104.069 210.279 104.069 208.736V199.244H106.53V208.756C106.53 209.706 106.771 210.432 107.253 210.933C107.735 211.435 108.444 211.685 109.382 211.685C111.283 211.685 112.233 210.683 112.233 208.677V199.244H114.694ZM128.62 213.463H126.149L119.812 203.375V213.463H117.341V199.244H119.812L126.169 209.371V199.244H128.62V213.463ZM134.147 213.463H131.687V199.244H134.147V213.463ZM148.464 213.463H145.993L139.655 203.375V213.463H137.185V199.244H139.655L146.013 209.371V199.244H148.464V213.463ZM162.282 211.617C161.768 212.288 161.055 212.795 160.144 213.14C159.232 213.485 158.197 213.658 157.038 213.658C155.847 213.658 154.792 213.388 153.874 212.847C152.956 212.307 152.246 211.536 151.745 210.533C151.25 209.524 150.993 208.349 150.974 207.008V205.894C150.974 203.746 151.488 202.069 152.517 200.865C153.545 199.654 154.981 199.049 156.823 199.049C158.405 199.049 159.662 199.439 160.593 200.22C161.524 201.002 162.084 202.128 162.272 203.599H159.851C159.577 201.887 158.584 201.031 156.872 201.031C155.765 201.031 154.922 201.431 154.343 202.232C153.77 203.026 153.474 204.195 153.454 205.738V206.832C153.454 208.368 153.776 209.563 154.421 210.416C155.072 211.262 155.974 211.685 157.126 211.685C158.389 211.685 159.287 211.399 159.821 210.826V208.043H156.892V206.168H162.282V211.617Z" fill="#717171"/>
</svg>
